<?xml version="1.0" encoding="UTF-8" standalone="no"?>
<svg xmlns="http://www.w3.org/2000/svg" height="4303" width="4578">
<line x1="0" y1="0" x2="0" y2="265" style="stroke:rgb(0,0,0);stroke-width:1" lineId="0" />
<line x1="0" y1="265" x2="0" y2="352" style="stroke:rgb(0,0,0);stroke-width:2" lineId="1" doors="I1"/>
<line x1="0" y1="352" x2="0" y2="465" style="stroke:rgb(0,0,0);stroke-width:1" lineId="2" />
<line x1="0" y1="465" x2="0" y2="552" style="stroke:rgb(0,0,0);stroke-width:2" lineId="3" doors="I2"/>
<line x1="0" y1="552" x2="0" y2="966" style="stroke:rgb(0,0,0);stroke-width:1" lineId="4" />
<line x1="0" y1="966" x2="0" y2="1053" style="stroke:rgb(0,0,0);stroke-width:2" lineId="5" doors="I3"/>
<line x1="0" y1="1053" x2="0" y2="1368" style="stroke:rgb(0,0,0);stroke-width:1" lineId="6" />
<line x1="0" y1="1368" x2="0" y2="1455" style="stroke:rgb(0,0,0);stroke-width:2" lineId="7" doors="I4"/>
<line x1="0" y1="1455" x2="0" y2="1667" style="stroke:rgb(0,0,0);stroke-width:1" lineId="8" />
<line x1="0" y1="1667" x2="0" y2="1754" style="stroke:rgb(0,0,0);stroke-width:2" lineId="9" doors="I5"/>
<line x1="0" y1="1754" x2="0" y2="2167" style="stroke:rgb(0,0,0);stroke-width:1" lineId="10" />
<line x1="0" y1="2167" x2="0" y2="2254" style="stroke:rgb(0,0,0);stroke-width:2" lineId="11" doors="I6"/>
<line x1="0" y1="2254" x2="0" y2="2566" style="stroke:rgb(0,0,0);stroke-width:1" lineId="12" />
<line x1="0" y1="2566" x2="0" y2="2653" style="stroke:rgb(0,0,0);stroke-width:2" lineId="13" doors="I7"/>
<line x1="0" y1="2653" x2="0" y2="2865" style="stroke:rgb(0,0,0);stroke-width:1" lineId="14" />
<line x1="0" y1="2865" x2="0" y2="2952" style="stroke:rgb(0,0,0);stroke-width:2" lineId="15" doors="I8"/>
<line x1="0" y1="2952" x2="0" y2="3766" style="stroke:rgb(0,0,0);stroke-width:1" lineId="16" />
<line x1="0" y1="3766" x2="0" y2="3853" style="stroke:rgb(0,0,0);stroke-width:2" lineId="17" doors="I9"/>
<line x1="0" y1="3853" x2="0" y2="4303" style="stroke:rgb(0,0,0);stroke-width:1" lineId="18" />
<line x1="0" y1="4303" x2="172" y2="4303" style="stroke:rgb(0,0,0);stroke-width:2" lineId="19" doors="m"/>
<line x1="172" y1="4303" x2="172" y2="4216" style="stroke:rgb(0,0,0);stroke-width:1" lineId="20" />
<line x1="172" y1="4216" x2="172" y2="4136" style="stroke:rgb(0,0,0);stroke-width:2" lineId="21" doors="I10"/>
<line x1="172" y1="4136" x2="172" y2="3741" style="stroke:rgb(0,0,0);stroke-width:1" lineId="22" />
<line x1="172" y1="3741" x2="582" y2="3741" style="stroke:rgb(0,0,0);stroke-width:1" lineId="23" />
<line x1="582" y1="3741" x2="662" y2="3741" style="stroke:rgb(0,0,0);stroke-width:2" lineId="24" doors="wc"/>
<line x1="662" y1="3741" x2="897" y2="3741" style="stroke:rgb(0,0,0);stroke-width:1" lineId="25" />
<line x1="897" y1="3741" x2="984" y2="3741" style="stroke:rgb(0,0,0);stroke-width:2" lineId="26" doors="I11"/>
<line x1="984" y1="3741" x2="1199" y2="3741" style="stroke:rgb(0,0,0);stroke-width:1" lineId="27" />
<line x1="1199" y1="3741" x2="1286" y2="3741" style="stroke:rgb(0,0,0);stroke-width:2" lineId="28" doors="I12"/>
<line x1="1286" y1="3741" x2="1601" y2="3741" style="stroke:rgb(0,0,0);stroke-width:1" lineId="29" />
<line x1="1601" y1="3741" x2="1688" y2="3741" style="stroke:rgb(0,0,0);stroke-width:2" lineId="30" doors="I13"/>
<line x1="1688" y1="3741" x2="1900" y2="3741" style="stroke:rgb(0,0,0);stroke-width:1" lineId="31" />
<line x1="1900" y1="3741" x2="1987" y2="3741" style="stroke:rgb(0,0,0);stroke-width:2" lineId="32" doors="I14"/>
<line x1="1987" y1="3741" x2="2402" y2="3741" style="stroke:rgb(0,0,0);stroke-width:1" lineId="33" />
<line x1="2402" y1="3741" x2="2489" y2="3741" style="stroke:rgb(0,0,0);stroke-width:2" lineId="34" doors="I16"/>
<line x1="2489" y1="3741" x2="2701" y2="3741" style="stroke:rgb(0,0,0);stroke-width:1" lineId="35" />
<line x1="2701" y1="3741" x2="2788" y2="3741" style="stroke:rgb(0,0,0);stroke-width:2" lineId="36" doors="I17"/>
<line x1="2788" y1="3741" x2="3000" y2="3741" style="stroke:rgb(0,0,0);stroke-width:1" lineId="37" />
<line x1="3000" y1="3741" x2="3087" y2="3741" style="stroke:rgb(0,0,0);stroke-width:2" lineId="38" doors="I14"/>
<line x1="3087" y1="3741" x2="3299" y2="3741" style="stroke:rgb(0,0,0);stroke-width:1" lineId="39" />
<line x1="3299" y1="3741" x2="3386" y2="3741" style="stroke:rgb(0,0,0);stroke-width:2" lineId="40" doors="I19"/>
<line x1="3386" y1="3741" x2="3598" y2="3741" style="stroke:rgb(0,0,0);stroke-width:1" lineId="41" />
<line x1="3598" y1="3741" x2="3685" y2="3741" style="stroke:rgb(0,0,0);stroke-width:2" lineId="42" doors="I20"/>
<line x1="3685" y1="3741" x2="3897" y2="3741" style="stroke:rgb(0,0,0);stroke-width:1" lineId="43" />
<line x1="3897" y1="3741" x2="3984" y2="3741" style="stroke:rgb(0,0,0);stroke-width:2" lineId="44" doors="I21"/>
<line x1="3984" y1="3741" x2="4196" y2="3741" style="stroke:rgb(0,0,0);stroke-width:1" lineId="45" />
<line x1="4196" y1="3741" x2="4283" y2="3741" style="stroke:rgb(0,0,0);stroke-width:2" lineId="46" doors="I22"/>
<line x1="4283" y1="3741" x2="4391" y2="3741" style="stroke:rgb(0,0,0);stroke-width:1" lineId="47" />
<line x1="4391" y1="3741" x2="4452" y2="3741" style="stroke:rgb(0,0,0);stroke-width:1" lineId="48" />
<line x1="4452" y1="3741" x2="4532" y2="3741" style="stroke:rgb(0,0,0);stroke-width:2" lineId="49" doors="kopirka"/>
<line x1="4532" y1="3741" x2="4578" y2="3741" style="stroke:rgb(0,0,0);stroke-width:1" lineId="50" />
<line x1="4578" y1="3741" x2="4578" y2="3541" style="stroke:rgb(0,0,0);stroke-width:1" lineId="51" />
<line x1="4578" y1="3541" x2="4578" y2="3454" style="stroke:rgb(0,0,0);stroke-width:2" lineId="52" doors="I23"/>
<line x1="4578" y1="3454" x2="4578" y2="3241" style="stroke:rgb(0,0,0);stroke-width:1" lineId="53" />
<line x1="4578" y1="3241" x2="4578" y2="3154" style="stroke:rgb(0,0,0);stroke-width:2" lineId="54" doors="I24A"/>
<line x1="4578" y1="3154" x2="4578" y2="2937" style="stroke:rgb(0,0,0);stroke-width:1" lineId="55" />
<line x1="4578" y1="2937" x2="4578" y2="2857" style="stroke:rgb(0,0,0);stroke-width:2" lineId="56" doors="I24B"/>
<line x1="4578" y1="2857" x2="4578" y2="2341" style="stroke:rgb(0,0,0);stroke-width:1" lineId="57" />
<line x1="4578" y1="2341" x2="4578" y2="2254" style="stroke:rgb(0,0,0);stroke-width:2" lineId="58" doors="I25"/>
<line x1="4578" y1="2254" x2="4578" y2="2040" style="stroke:rgb(0,0,0);stroke-width:1" lineId="59" />
<line x1="4578" y1="2040" x2="4578" y2="1953" style="stroke:rgb(0,0,0);stroke-width:2" lineId="60" doors="I26"/>
<line x1="4578" y1="1953" x2="4578" y2="1441" style="stroke:rgb(0,0,0);stroke-width:1" lineId="61" />
<line x1="4578" y1="1441" x2="4578" y2="1354" style="stroke:rgb(0,0,0);stroke-width:2" lineId="62" doors="I27"/>
<line x1="4578" y1="1354" x2="4578" y2="1142" style="stroke:rgb(0,0,0);stroke-width:1" lineId="63" />
<line x1="4578" y1="1142" x2="4578" y2="1055" style="stroke:rgb(0,0,0);stroke-width:2" lineId="64" doors="I28"/>
<line x1="4578" y1="1055" x2="4578" y2="841" style="stroke:rgb(0,0,0);stroke-width:1" lineId="65" />
<line x1="4578" y1="841" x2="4578" y2="754" style="stroke:rgb(0,0,0);stroke-width:2" lineId="66" doors="I29"/>
<line x1="4578" y1="754" x2="4578" y2="542" style="stroke:rgb(0,0,0);stroke-width:1" lineId="67" />
<line x1="4578" y1="542" x2="4578" y2="455" style="stroke:rgb(0,0,0);stroke-width:2" lineId="68" doors="I30"/>
<line x1="4578" y1="455" x2="4578" y2="242" style="stroke:rgb(0,0,0);stroke-width:1" lineId="69" />
<line x1="4578" y1="242" x2="4578" y2="155" style="stroke:rgb(0,0,0);stroke-width:2" lineId="70" doors="I31"/>
<line x1="4578" y1="155" x2="4578" y2="13" style="stroke:rgb(0,0,0);stroke-width:1" lineId="71" />
<line x1="4578" y1="13" x2="4406" y2="13" style="stroke:rgb(0,0,0);stroke-width:1" lineId="72" />
<line x1="4406" y1="13" x2="4406" y2="570" style="stroke:rgb(0,0,0);stroke-width:1" lineId="73" />
<line x1="4406" y1="570" x2="4246" y2="570" style="stroke:rgb(0,0,0);stroke-width:1" lineId="74" />
<line x1="4246" y1="570" x2="3806" y2="570" style="stroke:rgb(0,0,0);stroke-width:1" lineId="75" />
<line x1="3806" y1="570" x2="3749" y2="570" style="stroke:rgb(0,0,0);stroke-width:1" lineId="76" />
<line x1="3749" y1="570" x2="3638" y2="570" style="stroke:rgb(0,0,0);stroke-width:2" lineId="77" doors="vytah"/>
<line x1="3638" y1="570" x2="3398" y2="570" style="stroke:rgb(0,0,0);stroke-width:1" lineId="78" />
<line x1="3398" y1="570" x2="3311" y2="570" style="stroke:rgb(0,0,0);stroke-width:2" lineId="79" doors="I32"/>
<line x1="3311" y1="570" x2="3096" y2="570" style="stroke:rgb(0,0,0);stroke-width:1" lineId="80" />
<line x1="3096" y1="570" x2="3009" y2="570" style="stroke:rgb(0,0,0);stroke-width:2" lineId="81" doors="I32"/>
<line x1="3009" y1="570" x2="2799" y2="570" style="stroke:rgb(0,0,0);stroke-width:1" lineId="82" />
<line x1="2799" y1="570" x2="2717" y2="570" style="stroke:rgb(0,0,0);stroke-width:2" lineId="83" doors="I33b"/>
<line x1="2717" y1="570" x2="2492" y2="570" style="stroke:rgb(0,0,0);stroke-width:1" lineId="84" />
<line x1="2492" y1="570" x2="2410" y2="570" style="stroke:rgb(0,0,0);stroke-width:2" lineId="85" doors="I33ab"/>
<line x1="2410" y1="570" x2="1890" y2="570" style="stroke:rgb(0,0,0);stroke-width:1" lineId="86" />
<line x1="1890" y1="570" x2="1808" y2="570" style="stroke:rgb(0,0,0);stroke-width:2" lineId="87" doors="I34"/>
<line x1="1808" y1="570" x2="1593" y2="570" style="stroke:rgb(0,0,0);stroke-width:1" lineId="88" />
<line x1="1593" y1="570" x2="1506" y2="570" style="stroke:rgb(0,0,0);stroke-width:2" lineId="89" doors="I35"/>
<line x1="1506" y1="570" x2="1291" y2="570" style="stroke:rgb(0,0,0);stroke-width:1" lineId="90" />
<line x1="1291" y1="570" x2="1204" y2="570" style="stroke:rgb(0,0,0);stroke-width:2" lineId="91" doors="I36"/>
<line x1="1204" y1="570" x2="989" y2="570" style="stroke:rgb(0,0,0);stroke-width:1" lineId="92" />
<line x1="989" y1="570" x2="902" y2="570" style="stroke:rgb(0,0,0);stroke-width:2" lineId="93" doors="I37"/>
<line x1="902" y1="570" x2="667" y2="570" style="stroke:rgb(0,0,0);stroke-width:1" lineId="94" />
<line x1="667" y1="570" x2="587" y2="570" style="stroke:rgb(0,0,0);stroke-width:2" lineId="95" doors="wc"/>
<line x1="587" y1="570" x2="172" y2="570" style="stroke:rgb(0,0,0);stroke-width:1" lineId="96" />
<line x1="172" y1="570" x2="172" y2="190" style="stroke:rgb(0,0,0);stroke-width:1" lineId="97" />
<line x1="172" y1="190" x2="172" y2="110" style="stroke:rgb(0,0,0);stroke-width:2" lineId="98" doors="I38"/>
<line x1="172" y1="110" x2="172" y2="0" style="stroke:rgb(0,0,0);stroke-width:1" lineId="99" />
<line x1="172" y1="0" x2="0" y2="0" style="stroke:rgb(0,0,0);stroke-width:1" lineId="100" />
<!-- atrium  -->
<line x1="172" y1="726" x2="172" y2="3544" style="stroke:rgb(0,0,0);stroke-width:1" lineId="101" />
<line x1="172" y1="3544" x2="208" y2="3544" style="stroke:rgb(0,0,0);stroke-width:1" lineId="102" />
<line x1="208" y1="3544" x2="208" y2="3479" style="stroke:rgb(0,0,0);stroke-width:1" lineId="103" />
<line x1="208" y1="3479" x2="776" y2="3479" style="stroke:rgb(0,0,0);stroke-width:1" lineId="104" />
<line x1="776" y1="3479" x2="776" y2="3544" style="stroke:rgb(0,0,0);stroke-width:1" lineId="105" />
<line x1="776" y1="3544" x2="808" y2="3544" style="stroke:rgb(0,0,0);stroke-width:1" lineId="106" />
<line x1="808" y1="3544" x2="808" y2="3479" style="stroke:rgb(0,0,0);stroke-width:1" lineId="107" />
<line x1="808" y1="3479" x2="1376" y2="3479" style="stroke:rgb(0,0,0);stroke-width:1" lineId="108" />
<line x1="1376" y1="3479" x2="1376" y2="3544" style="stroke:rgb(0,0,0);stroke-width:1" lineId="109" />
<line x1="1376" y1="3544" x2="1408" y2="3544" style="stroke:rgb(0,0,0);stroke-width:1" lineId="110" />
<line x1="1408" y1="3544" x2="1408" y2="3479" style="stroke:rgb(0,0,0);stroke-width:1" lineId="111" />
<line x1="1408" y1="3479" x2="1976" y2="3479" style="stroke:rgb(0,0,0);stroke-width:1" lineId="112" />
<line x1="1976" y1="3479" x2="1976" y2="3544" style="stroke:rgb(0,0,0);stroke-width:1" lineId="113" />
<line x1="1976" y1="3544" x2="1988" y2="3544" style="stroke:rgb(0,0,0);stroke-width:1" lineId="114" />
<line x1="1988" y1="3544" x2="1988" y2="3560" style="stroke:rgb(0,0,0);stroke-width:1" lineId="115" />
<line x1="1988" y1="3560" x2="2701" y2="3560" style="stroke:rgb(0,0,0);stroke-width:1" lineId="116" />
<line x1="2701" y1="3560" x2="2701" y2="3418" style="stroke:rgb(0,0,0);stroke-width:1" lineId="117" />
<line x1="2701" y1="3418" x2="2611" y2="3418" style="stroke:rgb(0,0,0);stroke-width:1" lineId="118" />
<line x1="2611" y1="3418" x2="2611" y2="3224" style="stroke:rgb(0,0,0);stroke-width:1" lineId="119" />
<line x1="2611" y1="3224" x2="2611" y2="3144" style="stroke:rgb(0,0,0);stroke-width:2" lineId="120" doors="I45"/>
<line x1="2611" y1="3144" x2="2611" y2="2867" style="stroke:rgb(0,0,0);stroke-width:1" lineId="121" />
<line x1="2611" y1="2867" x2="2611" y2="2787" style="stroke:rgb(0,0,0);stroke-width:2" lineId="122" doors="I44"/>
<line x1="2611" y1="2787" x2="2611" y2="2516" style="stroke:rgb(0,0,0);stroke-width:1" lineId="123" />
<line x1="2611" y1="2516" x2="2611" y2="2436" style="stroke:rgb(0,0,0);stroke-width:2" lineId="124" doors="I43"/>
<line x1="2611" y1="2436" x2="2611" y2="2165" style="stroke:rgb(0,0,0);stroke-width:1" lineId="125" />
<line x1="2611" y1="2165" x2="2611" y2="2085" style="stroke:rgb(0,0,0);stroke-width:2" lineId="126" doors="I42"/>
<line x1="2611" y1="2085" x2="2611" y2="1810" style="stroke:rgb(0,0,0);stroke-width:1" lineId="127" />
<line x1="2611" y1="1810" x2="2611" y2="1730" style="stroke:rgb(0,0,0);stroke-width:2" lineId="128" doors="I41"/>
<line x1="2611" y1="1730" x2="2611" y2="1455" style="stroke:rgb(0,0,0);stroke-width:1" lineId="129" />
<line x1="2611" y1="1455" x2="2611" y2="1375" style="stroke:rgb(0,0,0);stroke-width:2" lineId="130" doors="I40"/>
<line x1="2611" y1="1375" x2="2611" y2="982" style="stroke:rgb(0,0,0);stroke-width:1" lineId="131" />
<line x1="2611" y1="982" x2="2611" y2="902" style="stroke:rgb(0,0,0);stroke-width:2" lineId="132" doors="I39"/>
<line x1="2611" y1="902" x2="2611" y2="852" style="stroke:rgb(0,0,0);stroke-width:1" lineId="133" />
<line x1="2611" y1="852" x2="2696" y2="852" style="stroke:rgb(0,0,0);stroke-width:1" lineId="134" />
<line x1="2696" y1="852" x2="2696" y2="710" style="stroke:rgb(0,0,0);stroke-width:1" lineId="135" />
<line x1="2696" y1="710" x2="1978" y2="710" style="stroke:rgb(0,0,0);stroke-width:1" lineId="136" />
<line x1="1978" y1="710" x2="1978" y2="726" style="stroke:rgb(0,0,0);stroke-width:1" lineId="137" />
<line x1="1978" y1="726" x2="1978" y2="786" style="stroke:rgb(0,0,0);stroke-width:1" lineId="138" />
<line x1="1978" y1="786" x2="1410" y2="786" style="stroke:rgb(0,0,0);stroke-width:1" lineId="139" />
<line x1="1410" y1="786" x2="1410" y2="726" style="stroke:rgb(0,0,0);stroke-width:1" lineId="140" />
<line x1="1410" y1="726" x2="1377" y2="726" style="stroke:rgb(0,0,0);stroke-width:1" lineId="141" />
<line x1="1377" y1="726" x2="1377" y2="786" style="stroke:rgb(0,0,0);stroke-width:1" lineId="142" />
<line x1="1377" y1="786" x2="809" y2="786" style="stroke:rgb(0,0,0);stroke-width:1" lineId="143" />
<line x1="809" y1="786" x2="809" y2="726" style="stroke:rgb(0,0,0);stroke-width:1" lineId="144" />
<line x1="809" y1="726" x2="775" y2="726" style="stroke:rgb(0,0,0);stroke-width:1" lineId="145" />
<line x1="775" y1="726" x2="775" y2="786" style="stroke:rgb(0,0,0);stroke-width:1" lineId="146" />
<line x1="775" y1="786" x2="207" y2="786" style="stroke:rgb(0,0,0);stroke-width:1" lineId="147" />
<line x1="207" y1="786" x2="207" y2="726" style="stroke:rgb(0,0,0);stroke-width:1" lineId="148" />
<line x1="207" y1="726" x2="171" y2="726" style="stroke:rgb(0,0,0);stroke-width:1" lineId="149" />
<!-- pocitacove miestnosti  -->
<line x1="2815" y1="710" x2="2815" y2="852" style="stroke:rgb(0,0,0);stroke-width:1" lineId="150" />
<line x1="2815" y1="852" x2="2914" y2="852" style="stroke:rgb(0,0,0);stroke-width:1" lineId="151" />
<line x1="2914" y1="852" x2="2914" y2="3418" style="stroke:rgb(0,0,0);stroke-width:1" lineId="152" />
<line x1="2914" y1="3418" x2="2815" y2="3418" style="stroke:rgb(0,0,0);stroke-width:1" lineId="153" />
<line x1="2815" y1="3418" x2="2815" y2="3560" style="stroke:rgb(0,0,0);stroke-width:1" lineId="154" />
<line x1="2815" y1="3560" x2="3330" y2="3560" style="stroke:rgb(0,0,0);stroke-width:1" lineId="155" />
<line x1="3330" y1="3560" x2="3515" y2="3560" style="stroke:rgb(0,0,0);stroke-width:2" lineId="156" doors="H3"/>
<line x1="3515" y1="3560" x2="4415" y2="3560" style="stroke:rgb(0,0,0);stroke-width:1" lineId="157" />
<line x1="4415" y1="3560" x2="4415" y2="710" style="stroke:rgb(0,0,0);stroke-width:1" lineId="158" />
<line x1="4415" y1="710" x2="3825" y2="710" style="stroke:rgb(0,0,0);stroke-width:1" lineId="159" />
<line x1="3825" y1="710" x2="3620" y2="710" style="stroke:rgb(0,0,0);stroke-width:1" lineId="160" />
<line x1="3620" y1="710" x2="3435" y2="710" style="stroke:rgb(0,0,0);stroke-width:2" lineId="161" doors="H6"/>
<line x1="3435" y1="710" x2="2815" y2="710" style="stroke:rgb(0,0,0);stroke-width:1" lineId="162" />
</svg>
