<?xml version="1.0" encoding="UTF-8" standalone="no"?>
<svg xmlns="http://www.w3.org/2000/svg" height="4303" width="4578">
<line x1="0" y1="0" x2="0" y2="265" style="stroke:rgb(0,0,0);stroke-width:2" lineId="0" />
<line x1="0" y1="265" x2="0" y2="352" style="stroke:rgb(0,0,0);stroke-width:4" lineId="1" doors="I1"/>
<line x1="0" y1="352" x2="0" y2="465" style="stroke:rgb(0,0,0);stroke-width:2" lineId="2" />
<line x1="0" y1="465" x2="0" y2="552" style="stroke:rgb(0,0,0);stroke-width:4" lineId="3" doors="I2"/>
<line x1="0" y1="552" x2="0" y2="966" style="stroke:rgb(0,0,0);stroke-width:2" lineId="4" />
<line x1="0" y1="966" x2="0" y2="1053" style="stroke:rgb(0,0,0);stroke-width:4" lineId="5" doors="I3"/>
<line x1="0" y1="1053" x2="0" y2="1368" style="stroke:rgb(0,0,0);stroke-width:2" lineId="6" />
<line x1="0" y1="1368" x2="0" y2="1455" style="stroke:rgb(0,0,0);stroke-width:4" lineId="7" doors="I4"/>
<line x1="0" y1="1455" x2="0" y2="1667" style="stroke:rgb(0,0,0);stroke-width:2" lineId="8" />
<line x1="0" y1="1667" x2="0" y2="1754" style="stroke:rgb(0,0,0);stroke-width:4" lineId="9" doors="I5"/>
<line x1="0" y1="1754" x2="0" y2="2167" style="stroke:rgb(0,0,0);stroke-width:2" lineId="10" />
<line x1="0" y1="2167" x2="0" y2="2254" style="stroke:rgb(0,0,0);stroke-width:4" lineId="11" doors="I6"/>
<line x1="0" y1="2254" x2="0" y2="2566" style="stroke:rgb(0,0,0);stroke-width:2" lineId="12" />
<line x1="0" y1="2566" x2="0" y2="2653" style="stroke:rgb(0,0,0);stroke-width:4" lineId="13" doors="I7"/>
<line x1="0" y1="2653" x2="0" y2="2865" style="stroke:rgb(0,0,0);stroke-width:2" lineId="14" />
<line x1="0" y1="2865" x2="0" y2="2952" style="stroke:rgb(0,0,0);stroke-width:4" lineId="15" doors="I8"/>
<line x1="0" y1="2952" x2="0" y2="3766" style="stroke:rgb(0,0,0);stroke-width:2" lineId="16" />
<line x1="0" y1="3766" x2="0" y2="3853" style="stroke:rgb(0,0,0);stroke-width:4" lineId="17" doors="I9"/>
<line x1="0" y1="3853" x2="0" y2="4303" style="stroke:rgb(0,0,0);stroke-width:2" lineId="18" />
<line x1="0" y1="4303" x2="172" y2="4303" style="stroke:rgb(0,0,0);stroke-width:4" lineId="19" doors="m"/>
<line x1="172" y1="4303" x2="172" y2="4216" style="stroke:rgb(0,0,0);stroke-width:2" lineId="20" />
<line x1="172" y1="4216" x2="172" y2="4136" style="stroke:rgb(0,0,0);stroke-width:4" lineId="21" doors="I10"/>
<line x1="172" y1="4136" x2="172" y2="3741" style="stroke:rgb(0,0,0);stroke-width:2" lineId="22" />
<line x1="172" y1="3741" x2="582" y2="3741" style="stroke:rgb(0,0,0);stroke-width:2" lineId="23" />
<line x1="582" y1="3741" x2="662" y2="3741" style="stroke:rgb(0,0,0);stroke-width:4" lineId="24" doors="wc"/>
<line x1="662" y1="3741" x2="897" y2="3741" style="stroke:rgb(0,0,0);stroke-width:2" lineId="25" />
<line x1="897" y1="3741" x2="984" y2="3741" style="stroke:rgb(0,0,0);stroke-width:4" lineId="26" doors="I11"/>
<line x1="984" y1="3741" x2="1199" y2="3741" style="stroke:rgb(0,0,0);stroke-width:2" lineId="27" />
<line x1="1199" y1="3741" x2="1286" y2="3741" style="stroke:rgb(0,0,0);stroke-width:4" lineId="28" doors="I12"/>
<line x1="1286" y1="3741" x2="1601" y2="3741" style="stroke:rgb(0,0,0);stroke-width:2" lineId="29" />
<line x1="1601" y1="3741" x2="1688" y2="3741" style="stroke:rgb(0,0,0);stroke-width:4" lineId="30" doors="I13"/>
<line x1="1688" y1="3741" x2="1900" y2="3741" style="stroke:rgb(0,0,0);stroke-width:2" lineId="31" />
<line x1="1900" y1="3741" x2="1987" y2="3741" style="stroke:rgb(0,0,0);stroke-width:4" lineId="32" doors="I14"/>
<line x1="1987" y1="3741" x2="2402" y2="3741" style="stroke:rgb(0,0,0);stroke-width:2" lineId="33" />
<line x1="2402" y1="3741" x2="2489" y2="3741" style="stroke:rgb(0,0,0);stroke-width:4" lineId="34" doors="I16"/>
<line x1="2489" y1="3741" x2="2701" y2="3741" style="stroke:rgb(0,0,0);stroke-width:2" lineId="35" />
<line x1="2701" y1="3741" x2="2788" y2="3741" style="stroke:rgb(0,0,0);stroke-width:4" lineId="36" doors="I17"/>
<line x1="2788" y1="3741" x2="3000" y2="3741" style="stroke:rgb(0,0,0);stroke-width:2" lineId="37" />
<line x1="3000" y1="3741" x2="3087" y2="3741" style="stroke:rgb(0,0,0);stroke-width:4" lineId="38" doors="I14"/>
<line x1="3087" y1="3741" x2="3299" y2="3741" style="stroke:rgb(0,0,0);stroke-width:2" lineId="39" />
<line x1="3299" y1="3741" x2="3386" y2="3741" style="stroke:rgb(0,0,0);stroke-width:4" lineId="40" doors="I19"/>
<line x1="3386" y1="3741" x2="3598" y2="3741" style="stroke:rgb(0,0,0);stroke-width:2" lineId="41" />
<line x1="3598" y1="3741" x2="3685" y2="3741" style="stroke:rgb(0,0,0);stroke-width:4" lineId="42" doors="I20"/>
<line x1="3685" y1="3741" x2="3897" y2="3741" style="stroke:rgb(0,0,0);stroke-width:2" lineId="43" />
<line x1="3897" y1="3741" x2="3984" y2="3741" style="stroke:rgb(0,0,0);stroke-width:4" lineId="44" doors="I21"/>
<line x1="3984" y1="3741" x2="4196" y2="3741" style="stroke:rgb(0,0,0);stroke-width:2" lineId="45" />
<line x1="4196" y1="3741" x2="4283" y2="3741" style="stroke:rgb(0,0,0);stroke-width:4" lineId="46" doors="I22"/>
<line x1="4283" y1="3741" x2="4391" y2="3741" style="stroke:rgb(0,0,0);stroke-width:2" lineId="47" />
<line x1="4391" y1="3741" x2="4452" y2="3741" style="stroke:rgb(0,0,0);stroke-width:2" lineId="48" />
<line x1="4452" y1="3741" x2="4532" y2="3741" style="stroke:rgb(0,0,0);stroke-width:4" lineId="49" doors="kopirka"/>
<line x1="4532" y1="3741" x2="4578" y2="3741" style="stroke:rgb(0,0,0);stroke-width:2" lineId="50" />
<line x1="4578" y1="3741" x2="4578" y2="3541" style="stroke:rgb(0,0,0);stroke-width:2" lineId="51" />
<line x1="4578" y1="3541" x2="4578" y2="3454" style="stroke:rgb(0,0,0);stroke-width:4" lineId="52" doors="I23"/>
<line x1="4578" y1="3454" x2="4578" y2="3241" style="stroke:rgb(0,0,0);stroke-width:2" lineId="53" />
<line x1="4578" y1="3241" x2="4578" y2="3154" style="stroke:rgb(0,0,0);stroke-width:4" lineId="54" doors="I24A"/>
<line x1="4578" y1="3154" x2="4578" y2="2937" style="stroke:rgb(0,0,0);stroke-width:2" lineId="55" />
<line x1="4578" y1="2937" x2="4578" y2="2857" style="stroke:rgb(0,0,0);stroke-width:4" lineId="56" doors="I24B"/>
<line x1="4578" y1="2857" x2="4578" y2="2341" style="stroke:rgb(0,0,0);stroke-width:2" lineId="57" />
<line x1="4578" y1="2341" x2="4578" y2="2254" style="stroke:rgb(0,0,0);stroke-width:4" lineId="58" doors="I25"/>
<line x1="4578" y1="2254" x2="4578" y2="2040" style="stroke:rgb(0,0,0);stroke-width:2" lineId="59" />
<line x1="4578" y1="2040" x2="4578" y2="1953" style="stroke:rgb(0,0,0);stroke-width:4" lineId="60" doors="I26"/>
<line x1="4578" y1="1953" x2="4578" y2="1441" style="stroke:rgb(0,0,0);stroke-width:2" lineId="61" />
<line x1="4578" y1="1441" x2="4578" y2="1354" style="stroke:rgb(0,0,0);stroke-width:4" lineId="62" doors="I27"/>
<line x1="4578" y1="1354" x2="4578" y2="1142" style="stroke:rgb(0,0,0);stroke-width:2" lineId="63" />
<line x1="4578" y1="1142" x2="4578" y2="1055" style="stroke:rgb(0,0,0);stroke-width:4" lineId="64" doors="I28"/>
<line x1="4578" y1="1055" x2="4578" y2="841" style="stroke:rgb(0,0,0);stroke-width:2" lineId="65" />
<line x1="4578" y1="841" x2="4578" y2="754" style="stroke:rgb(0,0,0);stroke-width:4" lineId="66" doors="I29"/>
<line x1="4578" y1="754" x2="4578" y2="542" style="stroke:rgb(0,0,0);stroke-width:2" lineId="67" />
<line x1="4578" y1="542" x2="4578" y2="455" style="stroke:rgb(0,0,0);stroke-width:4" lineId="68" doors="I30"/>
<line x1="4578" y1="455" x2="4578" y2="242" style="stroke:rgb(0,0,0);stroke-width:2" lineId="69" />
<line x1="4578" y1="242" x2="4578" y2="155" style="stroke:rgb(0,0,0);stroke-width:4" lineId="70" doors="I31"/>
<line x1="4578" y1="155" x2="4578" y2="13" style="stroke:rgb(0,0,0);stroke-width:2" lineId="71" />
<line x1="4578" y1="13" x2="4406" y2="13" style="stroke:rgb(0,0,0);stroke-width:2" lineId="72" />
<line x1="4406" y1="13" x2="4406" y2="570" style="stroke:rgb(0,0,0);stroke-width:2" lineId="73" />
<line x1="4406" y1="570" x2="4246" y2="570" style="stroke:rgb(0,0,0);stroke-width:2" lineId="74" />
<line x1="4246" y1="570" x2="3806" y2="570" style="stroke:rgb(0,0,0);stroke-width:2" lineId="75" />
<line x1="3806" y1="570" x2="3749" y2="570" style="stroke:rgb(0,0,0);stroke-width:2" lineId="76" />
<line x1="3749" y1="570" x2="3638" y2="570" style="stroke:rgb(0,0,0);stroke-width:4" lineId="77" doors="vytah"/>
<line x1="3638" y1="570" x2="3398" y2="570" style="stroke:rgb(0,0,0);stroke-width:2" lineId="78" />
<line x1="3398" y1="570" x2="3311" y2="570" style="stroke:rgb(0,0,0);stroke-width:4" lineId="79" doors="I32"/>
<line x1="3311" y1="570" x2="3096" y2="570" style="stroke:rgb(0,0,0);stroke-width:2" lineId="80" />
<line x1="3096" y1="570" x2="3009" y2="570" style="stroke:rgb(0,0,0);stroke-width:4" lineId="81" doors="I32"/>
<line x1="3009" y1="570" x2="2799" y2="570" style="stroke:rgb(0,0,0);stroke-width:2" lineId="82" />
<line x1="2799" y1="570" x2="2717" y2="570" style="stroke:rgb(0,0,0);stroke-width:4" lineId="83" doors="I33b"/>
<line x1="2717" y1="570" x2="2492" y2="570" style="stroke:rgb(0,0,0);stroke-width:2" lineId="84" />
<line x1="2492" y1="570" x2="2410" y2="570" style="stroke:rgb(0,0,0);stroke-width:4" lineId="85" doors="I33ab"/>
<line x1="2410" y1="570" x2="1890" y2="570" style="stroke:rgb(0,0,0);stroke-width:2" lineId="86" />
<line x1="1890" y1="570" x2="1808" y2="570" style="stroke:rgb(0,0,0);stroke-width:4" lineId="87" doors="I34"/>
<line x1="1808" y1="570" x2="1593" y2="570" style="stroke:rgb(0,0,0);stroke-width:2" lineId="88" />
<line x1="1593" y1="570" x2="1506" y2="570" style="stroke:rgb(0,0,0);stroke-width:4" lineId="89" doors="I35"/>
<line x1="1506" y1="570" x2="1291" y2="570" style="stroke:rgb(0,0,0);stroke-width:2" lineId="90" />
<line x1="1291" y1="570" x2="1204" y2="570" style="stroke:rgb(0,0,0);stroke-width:4" lineId="91" doors="I36"/>
<line x1="1204" y1="570" x2="989" y2="570" style="stroke:rgb(0,0,0);stroke-width:2" lineId="92" />
<line x1="989" y1="570" x2="902" y2="570" style="stroke:rgb(0,0,0);stroke-width:4" lineId="93" doors="I37"/>
<line x1="902" y1="570" x2="667" y2="570" style="stroke:rgb(0,0,0);stroke-width:2" lineId="94" />
<line x1="667" y1="570" x2="587" y2="570" style="stroke:rgb(0,0,0);stroke-width:4" lineId="95" doors="wc"/>
<line x1="587" y1="570" x2="172" y2="570" style="stroke:rgb(0,0,0);stroke-width:2" lineId="96" />
<line x1="172" y1="570" x2="172" y2="190" style="stroke:rgb(0,0,0);stroke-width:2" lineId="97" />
<line x1="172" y1="190" x2="172" y2="110" style="stroke:rgb(0,0,0);stroke-width:4" lineId="98" doors="I38"/>
<line x1="172" y1="110" x2="172" y2="0" style="stroke:rgb(0,0,0);stroke-width:2" lineId="99" />
<line x1="172" y1="0" x2="0" y2="0" style="stroke:rgb(0,0,0);stroke-width:2" lineId="100" />
<!-- atrium  -->
<line x1="172" y1="726" x2="172" y2="3544" style="stroke:rgb(0,0,0);stroke-width:2" lineId="101" />
<line x1="172" y1="3544" x2="208" y2="3544" style="stroke:rgb(0,0,0);stroke-width:2" lineId="102" />
<line x1="208" y1="3544" x2="208" y2="3479" style="stroke:rgb(0,0,0);stroke-width:2" lineId="103" />
<line x1="208" y1="3479" x2="776" y2="3479" style="stroke:rgb(0,0,0);stroke-width:2" lineId="104" />
<line x1="776" y1="3479" x2="776" y2="3544" style="stroke:rgb(0,0,0);stroke-width:2" lineId="105" />
<line x1="776" y1="3544" x2="808" y2="3544" style="stroke:rgb(0,0,0);stroke-width:2" lineId="106" />
<line x1="808" y1="3544" x2="808" y2="3479" style="stroke:rgb(0,0,0);stroke-width:2" lineId="107" />
<line x1="808" y1="3479" x2="1376" y2="3479" style="stroke:rgb(0,0,0);stroke-width:2" lineId="108" />
<line x1="1376" y1="3479" x2="1376" y2="3544" style="stroke:rgb(0,0,0);stroke-width:2" lineId="109" />
<line x1="1376" y1="3544" x2="1408" y2="3544" style="stroke:rgb(0,0,0);stroke-width:2" lineId="110" />
<line x1="1408" y1="3544" x2="1408" y2="3479" style="stroke:rgb(0,0,0);stroke-width:2" lineId="111" />
<line x1="1408" y1="3479" x2="1976" y2="3479" style="stroke:rgb(0,0,0);stroke-width:2" lineId="112" />
<line x1="1976" y1="3479" x2="1976" y2="3544" style="stroke:rgb(0,0,0);stroke-width:2" lineId="113" />
<line x1="1976" y1="3544" x2="1988" y2="3544" style="stroke:rgb(0,0,0);stroke-width:2" lineId="114" />
<line x1="1988" y1="3544" x2="1988" y2="3560" style="stroke:rgb(0,0,0);stroke-width:2" lineId="115" />
<line x1="1988" y1="3560" x2="2701" y2="3560" style="stroke:rgb(0,0,0);stroke-width:2" lineId="116" />
<line x1="2701" y1="3560" x2="2701" y2="3418" style="stroke:rgb(0,0,0);stroke-width:2" lineId="117" />
<line x1="2701" y1="3418" x2="2611" y2="3418" style="stroke:rgb(0,0,0);stroke-width:2" lineId="118" />
<line x1="2611" y1="3418" x2="2611" y2="3224" style="stroke:rgb(0,0,0);stroke-width:2" lineId="119" />
<line x1="2611" y1="3224" x2="2611" y2="3144" style="stroke:rgb(0,0,0);stroke-width:4" lineId="120" doors="I45"/>
<line x1="2611" y1="3144" x2="2611" y2="2867" style="stroke:rgb(0,0,0);stroke-width:2" lineId="121" />
<line x1="2611" y1="2867" x2="2611" y2="2787" style="stroke:rgb(0,0,0);stroke-width:4" lineId="122" doors="I44"/>
<line x1="2611" y1="2787" x2="2611" y2="2516" style="stroke:rgb(0,0,0);stroke-width:2" lineId="123" />
<line x1="2611" y1="2516" x2="2611" y2="2436" style="stroke:rgb(0,0,0);stroke-width:4" lineId="124" doors="I43"/>
<line x1="2611" y1="2436" x2="2611" y2="2165" style="stroke:rgb(0,0,0);stroke-width:2" lineId="125" />
<line x1="2611" y1="2165" x2="2611" y2="2085" style="stroke:rgb(0,0,0);stroke-width:4" lineId="126" doors="I42"/>
<line x1="2611" y1="2085" x2="2611" y2="1810" style="stroke:rgb(0,0,0);stroke-width:2" lineId="127" />
<line x1="2611" y1="1810" x2="2611" y2="1730" style="stroke:rgb(0,0,0);stroke-width:4" lineId="128" doors="I41"/>
<line x1="2611" y1="1730" x2="2611" y2="1455" style="stroke:rgb(0,0,0);stroke-width:2" lineId="129" />
<line x1="2611" y1="1455" x2="2611" y2="1375" style="stroke:rgb(0,0,0);stroke-width:4" lineId="130" doors="I40"/>
<line x1="2611" y1="1375" x2="2611" y2="982" style="stroke:rgb(0,0,0);stroke-width:2" lineId="131" />
<line x1="2611" y1="982" x2="2611" y2="902" style="stroke:rgb(0,0,0);stroke-width:4" lineId="132" doors="I39"/>
<line x1="2611" y1="902" x2="2611" y2="852" style="stroke:rgb(0,0,0);stroke-width:2" lineId="133" />
<line x1="2611" y1="852" x2="2696" y2="852" style="stroke:rgb(0,0,0);stroke-width:2" lineId="134" />
<line x1="2696" y1="852" x2="2696" y2="710" style="stroke:rgb(0,0,0);stroke-width:2" lineId="135" />
<line x1="2696" y1="710" x2="1978" y2="710" style="stroke:rgb(0,0,0);stroke-width:2" lineId="136" />
<line x1="1978" y1="710" x2="1978" y2="726" style="stroke:rgb(0,0,0);stroke-width:2" lineId="137" />
<line x1="1978" y1="726" x2="1978" y2="786" style="stroke:rgb(0,0,0);stroke-width:2" lineId="138" />
<line x1="1978" y1="786" x2="1410" y2="786" style="stroke:rgb(0,0,0);stroke-width:2" lineId="139" />
<line x1="1410" y1="786" x2="1410" y2="726" style="stroke:rgb(0,0,0);stroke-width:2" lineId="140" />
<line x1="1410" y1="726" x2="1377" y2="726" style="stroke:rgb(0,0,0);stroke-width:2" lineId="141" />
<line x1="1377" y1="726" x2="1377" y2="786" style="stroke:rgb(0,0,0);stroke-width:2" lineId="142" />
<line x1="1377" y1="786" x2="809" y2="786" style="stroke:rgb(0,0,0);stroke-width:2" lineId="143" />
<line x1="809" y1="786" x2="809" y2="726" style="stroke:rgb(0,0,0);stroke-width:2" lineId="144" />
<line x1="809" y1="726" x2="775" y2="726" style="stroke:rgb(0,0,0);stroke-width:2" lineId="145" />
<line x1="775" y1="726" x2="775" y2="786" style="stroke:rgb(0,0,0);stroke-width:2" lineId="146" />
<line x1="775" y1="786" x2="207" y2="786" style="stroke:rgb(0,0,0);stroke-width:2" lineId="147" />
<line x1="207" y1="786" x2="207" y2="726" style="stroke:rgb(0,0,0);stroke-width:2" lineId="148" />
<line x1="207" y1="726" x2="171" y2="726" style="stroke:rgb(0,0,0);stroke-width:2" lineId="149" />
<!-- pocitacove miestnosti  -->
<line x1="2815" y1="710" x2="2815" y2="852" style="stroke:rgb(0,0,0);stroke-width:2" lineId="150" />
<line x1="2815" y1="852" x2="2914" y2="852" style="stroke:rgb(0,0,0);stroke-width:2" lineId="151" />
<line x1="2914" y1="852" x2="2914" y2="3418" style="stroke:rgb(0,0,0);stroke-width:2" lineId="152" />
<line x1="2914" y1="3418" x2="2815" y2="3418" style="stroke:rgb(0,0,0);stroke-width:2" lineId="153" />
<line x1="2815" y1="3418" x2="2815" y2="3560" style="stroke:rgb(0,0,0);stroke-width:2" lineId="154" />
<line x1="2815" y1="3560" x2="3330" y2="3560" style="stroke:rgb(0,0,0);stroke-width:2" lineId="155" />
<line x1="3330" y1="3560" x2="3515" y2="3560" style="stroke:rgb(0,0,0);stroke-width:4" lineId="156" doors="H3"/>
<line x1="3515" y1="3560" x2="4415" y2="3560" style="stroke:rgb(0,0,0);stroke-width:2" lineId="157" />
<line x1="4415" y1="3560" x2="4415" y2="710" style="stroke:rgb(0,0,0);stroke-width:2" lineId="158" />
<line x1="4415" y1="710" x2="3825" y2="710" style="stroke:rgb(0,0,0);stroke-width:2" lineId="159" />
<line x1="3825" y1="710" x2="3484" y2="710" style="stroke:rgb(0,0,0);stroke-width:2" lineId="160" />
<line x1="3484" y1="710" x2="3299" y2="710" style="stroke:rgb(0,0,0);stroke-width:4" lineId="161" doors="H6"/>
<line x1="3299" y1="710" x2="2815" y2="710" style="stroke:rgb(0,0,0);stroke-width:2" lineId="162" />
<line x1="0" y1="0" x2="4578" y2="0" style="stroke:rgb(169,169,169);stroke-width:1" /><line x1="0" y1="45" x2="4578" y2="45" style="stroke:rgb(169,169,169);stroke-width:1" /><line x1="0" y1="90" x2="4578" y2="90" style="stroke:rgb(169,169,169);stroke-width:1" /><line x1="0" y1="135" x2="4578" y2="135" style="stroke:rgb(169,169,169);stroke-width:1" /><line x1="0" y1="180" x2="4578" y2="180" style="stroke:rgb(169,169,169);stroke-width:1" /><line x1="0" y1="225" x2="4578" y2="225" style="stroke:rgb(169,169,169);stroke-width:1" /><line x1="0" y1="270" x2="4578" y2="270" style="stroke:rgb(169,169,169);stroke-width:1" /><line x1="0" y1="315" x2="4578" y2="315" style="stroke:rgb(169,169,169);stroke-width:1" /><line x1="0" y1="360" x2="4578" y2="360" style="stroke:rgb(169,169,169);stroke-width:1" /><line x1="0" y1="405" x2="4578" y2="405" style="stroke:rgb(169,169,169);stroke-width:1" /><line x1="0" y1="450" x2="4578" y2="450" style="stroke:rgb(169,169,169);stroke-width:1" /><line x1="0" y1="495" x2="4578" y2="495" style="stroke:rgb(169,169,169);stroke-width:1" /><line x1="0" y1="540" x2="4578" y2="540" style="stroke:rgb(169,169,169);stroke-width:1" /><line x1="0" y1="585" x2="4578" y2="585" style="stroke:rgb(169,169,169);stroke-width:1" /><line x1="0" y1="630" x2="4578" y2="630" style="stroke:rgb(169,169,169);stroke-width:1" /><line x1="0" y1="675" x2="4578" y2="675" style="stroke:rgb(169,169,169);stroke-width:1" /><line x1="0" y1="720" x2="4578" y2="720" style="stroke:rgb(169,169,169);stroke-width:1" /><line x1="0" y1="765" x2="4578" y2="765" style="stroke:rgb(169,169,169);stroke-width:1" /><line x1="0" y1="810" x2="4578" y2="810" style="stroke:rgb(169,169,169);stroke-width:1" /><line x1="0" y1="855" x2="4578" y2="855" style="stroke:rgb(169,169,169);stroke-width:1" /><line x1="0" y1="900" x2="4578" y2="900" style="stroke:rgb(169,169,169);stroke-width:1" /><line x1="0" y1="945" x2="4578" y2="945" style="stroke:rgb(169,169,169);stroke-width:1" /><line x1="0" y1="990" x2="4578" y2="990" style="stroke:rgb(169,169,169);stroke-width:1" /><line x1="0" y1="1035" x2="4578" y2="1035" style="stroke:rgb(169,169,169);stroke-width:1" /><line x1="0" y1="1080" x2="4578" y2="1080" style="stroke:rgb(169,169,169);stroke-width:1" /><line x1="0" y1="1125" x2="4578" y2="1125" style="stroke:rgb(169,169,169);stroke-width:1" /><line x1="0" y1="1170" x2="4578" y2="1170" style="stroke:rgb(169,169,169);stroke-width:1" /><line x1="0" y1="1215" x2="4578" y2="1215" style="stroke:rgb(169,169,169);stroke-width:1" /><line x1="0" y1="1260" x2="4578" y2="1260" style="stroke:rgb(169,169,169);stroke-width:1" /><line x1="0" y1="1305" x2="4578" y2="1305" style="stroke:rgb(169,169,169);stroke-width:1" /><line x1="0" y1="1350" x2="4578" y2="1350" style="stroke:rgb(169,169,169);stroke-width:1" /><line x1="0" y1="1395" x2="4578" y2="1395" style="stroke:rgb(169,169,169);stroke-width:1" /><line x1="0" y1="1440" x2="4578" y2="1440" style="stroke:rgb(169,169,169);stroke-width:1" /><line x1="0" y1="1485" x2="4578" y2="1485" style="stroke:rgb(169,169,169);stroke-width:1" /><line x1="0" y1="1530" x2="4578" y2="1530" style="stroke:rgb(169,169,169);stroke-width:1" /><line x1="0" y1="1575" x2="4578" y2="1575" style="stroke:rgb(169,169,169);stroke-width:1" /><line x1="0" y1="1620" x2="4578" y2="1620" style="stroke:rgb(169,169,169);stroke-width:1" /><line x1="0" y1="1665" x2="4578" y2="1665" style="stroke:rgb(169,169,169);stroke-width:1" /><line x1="0" y1="1710" x2="4578" y2="1710" style="stroke:rgb(169,169,169);stroke-width:1" /><line x1="0" y1="1755" x2="4578" y2="1755" style="stroke:rgb(169,169,169);stroke-width:1" /><line x1="0" y1="1800" x2="4578" y2="1800" style="stroke:rgb(169,169,169);stroke-width:1" /><line x1="0" y1="1845" x2="4578" y2="1845" style="stroke:rgb(169,169,169);stroke-width:1" /><line x1="0" y1="1890" x2="4578" y2="1890" style="stroke:rgb(169,169,169);stroke-width:1" /><line x1="0" y1="1935" x2="4578" y2="1935" style="stroke:rgb(169,169,169);stroke-width:1" /><line x1="0" y1="1980" x2="4578" y2="1980" style="stroke:rgb(169,169,169);stroke-width:1" /><line x1="0" y1="2025" x2="4578" y2="2025" style="stroke:rgb(169,169,169);stroke-width:1" /><line x1="0" y1="2070" x2="4578" y2="2070" style="stroke:rgb(169,169,169);stroke-width:1" /><line x1="0" y1="2115" x2="4578" y2="2115" style="stroke:rgb(169,169,169);stroke-width:1" /><line x1="0" y1="2160" x2="4578" y2="2160" style="stroke:rgb(169,169,169);stroke-width:1" /><line x1="0" y1="2205" x2="4578" y2="2205" style="stroke:rgb(169,169,169);stroke-width:1" /><line x1="0" y1="2250" x2="4578" y2="2250" style="stroke:rgb(169,169,169);stroke-width:1" /><line x1="0" y1="2295" x2="4578" y2="2295" style="stroke:rgb(169,169,169);stroke-width:1" /><line x1="0" y1="2340" x2="4578" y2="2340" style="stroke:rgb(169,169,169);stroke-width:1" /><line x1="0" y1="2385" x2="4578" y2="2385" style="stroke:rgb(169,169,169);stroke-width:1" /><line x1="0" y1="2430" x2="4578" y2="2430" style="stroke:rgb(169,169,169);stroke-width:1" /><line x1="0" y1="2475" x2="4578" y2="2475" style="stroke:rgb(169,169,169);stroke-width:1" /><line x1="0" y1="2520" x2="4578" y2="2520" style="stroke:rgb(169,169,169);stroke-width:1" /><line x1="0" y1="2565" x2="4578" y2="2565" style="stroke:rgb(169,169,169);stroke-width:1" /><line x1="0" y1="2610" x2="4578" y2="2610" style="stroke:rgb(169,169,169);stroke-width:1" /><line x1="0" y1="2655" x2="4578" y2="2655" style="stroke:rgb(169,169,169);stroke-width:1" /><line x1="0" y1="2700" x2="4578" y2="2700" style="stroke:rgb(169,169,169);stroke-width:1" /><line x1="0" y1="2745" x2="4578" y2="2745" style="stroke:rgb(169,169,169);stroke-width:1" /><line x1="0" y1="2790" x2="4578" y2="2790" style="stroke:rgb(169,169,169);stroke-width:1" /><line x1="0" y1="2835" x2="4578" y2="2835" style="stroke:rgb(169,169,169);stroke-width:1" /><line x1="0" y1="2880" x2="4578" y2="2880" style="stroke:rgb(169,169,169);stroke-width:1" /><line x1="0" y1="2925" x2="4578" y2="2925" style="stroke:rgb(169,169,169);stroke-width:1" /><line x1="0" y1="2970" x2="4578" y2="2970" style="stroke:rgb(169,169,169);stroke-width:1" /><line x1="0" y1="3015" x2="4578" y2="3015" style="stroke:rgb(169,169,169);stroke-width:1" /><line x1="0" y1="3060" x2="4578" y2="3060" style="stroke:rgb(169,169,169);stroke-width:1" /><line x1="0" y1="3105" x2="4578" y2="3105" style="stroke:rgb(169,169,169);stroke-width:1" /><line x1="0" y1="3150" x2="4578" y2="3150" style="stroke:rgb(169,169,169);stroke-width:1" /><line x1="0" y1="3195" x2="4578" y2="3195" style="stroke:rgb(169,169,169);stroke-width:1" /><line x1="0" y1="3240" x2="4578" y2="3240" style="stroke:rgb(169,169,169);stroke-width:1" /><line x1="0" y1="3285" x2="4578" y2="3285" style="stroke:rgb(169,169,169);stroke-width:1" /><line x1="0" y1="3330" x2="4578" y2="3330" style="stroke:rgb(169,169,169);stroke-width:1" /><line x1="0" y1="3375" x2="4578" y2="3375" style="stroke:rgb(169,169,169);stroke-width:1" /><line x1="0" y1="3420" x2="4578" y2="3420" style="stroke:rgb(169,169,169);stroke-width:1" /><line x1="0" y1="3465" x2="4578" y2="3465" style="stroke:rgb(169,169,169);stroke-width:1" /><line x1="0" y1="3510" x2="4578" y2="3510" style="stroke:rgb(169,169,169);stroke-width:1" /><line x1="0" y1="3555" x2="4578" y2="3555" style="stroke:rgb(169,169,169);stroke-width:1" /><line x1="0" y1="3600" x2="4578" y2="3600" style="stroke:rgb(169,169,169);stroke-width:1" /><line x1="0" y1="3645" x2="4578" y2="3645" style="stroke:rgb(169,169,169);stroke-width:1" /><line x1="0" y1="3690" x2="4578" y2="3690" style="stroke:rgb(169,169,169);stroke-width:1" /><line x1="0" y1="3735" x2="4578" y2="3735" style="stroke:rgb(169,169,169);stroke-width:1" /><line x1="0" y1="3780" x2="4578" y2="3780" style="stroke:rgb(169,169,169);stroke-width:1" /><line x1="0" y1="3825" x2="4578" y2="3825" style="stroke:rgb(169,169,169);stroke-width:1" /><line x1="0" y1="3870" x2="4578" y2="3870" style="stroke:rgb(169,169,169);stroke-width:1" /><line x1="0" y1="3915" x2="4578" y2="3915" style="stroke:rgb(169,169,169);stroke-width:1" /><line x1="0" y1="3960" x2="4578" y2="3960" style="stroke:rgb(169,169,169);stroke-width:1" /><line x1="0" y1="4005" x2="4578" y2="4005" style="stroke:rgb(169,169,169);stroke-width:1" /><line x1="0" y1="4050" x2="4578" y2="4050" style="stroke:rgb(169,169,169);stroke-width:1" /><line x1="0" y1="4095" x2="4578" y2="4095" style="stroke:rgb(169,169,169);stroke-width:1" /><line x1="0" y1="4140" x2="4578" y2="4140" style="stroke:rgb(169,169,169);stroke-width:1" /><line x1="0" y1="4185" x2="4578" y2="4185" style="stroke:rgb(169,169,169);stroke-width:1" /><line x1="0" y1="4230" x2="4578" y2="4230" style="stroke:rgb(169,169,169);stroke-width:1" /><line x1="0" y1="4275" x2="4578" y2="4275" style="stroke:rgb(169,169,169);stroke-width:1" /><line x1="0" y1="4320" x2="4578" y2="4320" style="stroke:rgb(169,169,169);stroke-width:1" /><line x1="0" y1="0" x2="0" y2="4303" style="stroke:rgb(169,169,169);stroke-width:1" /><line x1="45" y1="0" x2="45" y2="4303" style="stroke:rgb(169,169,169);stroke-width:1" /><line x1="90" y1="0" x2="90" y2="4303" style="stroke:rgb(169,169,169);stroke-width:1" /><line x1="135" y1="0" x2="135" y2="4303" style="stroke:rgb(169,169,169);stroke-width:1" /><line x1="180" y1="0" x2="180" y2="4303" style="stroke:rgb(169,169,169);stroke-width:1" /><line x1="225" y1="0" x2="225" y2="4303" style="stroke:rgb(169,169,169);stroke-width:1" /><line x1="270" y1="0" x2="270" y2="4303" style="stroke:rgb(169,169,169);stroke-width:1" /><line x1="315" y1="0" x2="315" y2="4303" style="stroke:rgb(169,169,169);stroke-width:1" /><line x1="360" y1="0" x2="360" y2="4303" style="stroke:rgb(169,169,169);stroke-width:1" /><line x1="405" y1="0" x2="405" y2="4303" style="stroke:rgb(169,169,169);stroke-width:1" /><line x1="450" y1="0" x2="450" y2="4303" style="stroke:rgb(169,169,169);stroke-width:1" /><line x1="495" y1="0" x2="495" y2="4303" style="stroke:rgb(169,169,169);stroke-width:1" /><line x1="540" y1="0" x2="540" y2="4303" style="stroke:rgb(169,169,169);stroke-width:1" /><line x1="585" y1="0" x2="585" y2="4303" style="stroke:rgb(169,169,169);stroke-width:1" /><line x1="630" y1="0" x2="630" y2="4303" style="stroke:rgb(169,169,169);stroke-width:1" /><line x1="675" y1="0" x2="675" y2="4303" style="stroke:rgb(169,169,169);stroke-width:1" /><line x1="720" y1="0" x2="720" y2="4303" style="stroke:rgb(169,169,169);stroke-width:1" /><line x1="765" y1="0" x2="765" y2="4303" style="stroke:rgb(169,169,169);stroke-width:1" /><line x1="810" y1="0" x2="810" y2="4303" style="stroke:rgb(169,169,169);stroke-width:1" /><line x1="855" y1="0" x2="855" y2="4303" style="stroke:rgb(169,169,169);stroke-width:1" /><line x1="900" y1="0" x2="900" y2="4303" style="stroke:rgb(169,169,169);stroke-width:1" /><line x1="945" y1="0" x2="945" y2="4303" style="stroke:rgb(169,169,169);stroke-width:1" /><line x1="990" y1="0" x2="990" y2="4303" style="stroke:rgb(169,169,169);stroke-width:1" /><line x1="1035" y1="0" x2="1035" y2="4303" style="stroke:rgb(169,169,169);stroke-width:1" /><line x1="1080" y1="0" x2="1080" y2="4303" style="stroke:rgb(169,169,169);stroke-width:1" /><line x1="1125" y1="0" x2="1125" y2="4303" style="stroke:rgb(169,169,169);stroke-width:1" /><line x1="1170" y1="0" x2="1170" y2="4303" style="stroke:rgb(169,169,169);stroke-width:1" /><line x1="1215" y1="0" x2="1215" y2="4303" style="stroke:rgb(169,169,169);stroke-width:1" /><line x1="1260" y1="0" x2="1260" y2="4303" style="stroke:rgb(169,169,169);stroke-width:1" /><line x1="1305" y1="0" x2="1305" y2="4303" style="stroke:rgb(169,169,169);stroke-width:1" /><line x1="1350" y1="0" x2="1350" y2="4303" style="stroke:rgb(169,169,169);stroke-width:1" /><line x1="1395" y1="0" x2="1395" y2="4303" style="stroke:rgb(169,169,169);stroke-width:1" /><line x1="1440" y1="0" x2="1440" y2="4303" style="stroke:rgb(169,169,169);stroke-width:1" /><line x1="1485" y1="0" x2="1485" y2="4303" style="stroke:rgb(169,169,169);stroke-width:1" /><line x1="1530" y1="0" x2="1530" y2="4303" style="stroke:rgb(169,169,169);stroke-width:1" /><line x1="1575" y1="0" x2="1575" y2="4303" style="stroke:rgb(169,169,169);stroke-width:1" /><line x1="1620" y1="0" x2="1620" y2="4303" style="stroke:rgb(169,169,169);stroke-width:1" /><line x1="1665" y1="0" x2="1665" y2="4303" style="stroke:rgb(169,169,169);stroke-width:1" /><line x1="1710" y1="0" x2="1710" y2="4303" style="stroke:rgb(169,169,169);stroke-width:1" /><line x1="1755" y1="0" x2="1755" y2="4303" style="stroke:rgb(169,169,169);stroke-width:1" /><line x1="1800" y1="0" x2="1800" y2="4303" style="stroke:rgb(169,169,169);stroke-width:1" /><line x1="1845" y1="0" x2="1845" y2="4303" style="stroke:rgb(169,169,169);stroke-width:1" /><line x1="1890" y1="0" x2="1890" y2="4303" style="stroke:rgb(169,169,169);stroke-width:1" /><line x1="1935" y1="0" x2="1935" y2="4303" style="stroke:rgb(169,169,169);stroke-width:1" /><line x1="1980" y1="0" x2="1980" y2="4303" style="stroke:rgb(169,169,169);stroke-width:1" /><line x1="2025" y1="0" x2="2025" y2="4303" style="stroke:rgb(169,169,169);stroke-width:1" /><line x1="2070" y1="0" x2="2070" y2="4303" style="stroke:rgb(169,169,169);stroke-width:1" /><line x1="2115" y1="0" x2="2115" y2="4303" style="stroke:rgb(169,169,169);stroke-width:1" /><line x1="2160" y1="0" x2="2160" y2="4303" style="stroke:rgb(169,169,169);stroke-width:1" /><line x1="2205" y1="0" x2="2205" y2="4303" style="stroke:rgb(169,169,169);stroke-width:1" /><line x1="2250" y1="0" x2="2250" y2="4303" style="stroke:rgb(169,169,169);stroke-width:1" /><line x1="2295" y1="0" x2="2295" y2="4303" style="stroke:rgb(169,169,169);stroke-width:1" /><line x1="2340" y1="0" x2="2340" y2="4303" style="stroke:rgb(169,169,169);stroke-width:1" /><line x1="2385" y1="0" x2="2385" y2="4303" style="stroke:rgb(169,169,169);stroke-width:1" /><line x1="2430" y1="0" x2="2430" y2="4303" style="stroke:rgb(169,169,169);stroke-width:1" /><line x1="2475" y1="0" x2="2475" y2="4303" style="stroke:rgb(169,169,169);stroke-width:1" /><line x1="2520" y1="0" x2="2520" y2="4303" style="stroke:rgb(169,169,169);stroke-width:1" /><line x1="2565" y1="0" x2="2565" y2="4303" style="stroke:rgb(169,169,169);stroke-width:1" /><line x1="2610" y1="0" x2="2610" y2="4303" style="stroke:rgb(169,169,169);stroke-width:1" /><line x1="2655" y1="0" x2="2655" y2="4303" style="stroke:rgb(169,169,169);stroke-width:1" /><line x1="2700" y1="0" x2="2700" y2="4303" style="stroke:rgb(169,169,169);stroke-width:1" /><line x1="2745" y1="0" x2="2745" y2="4303" style="stroke:rgb(169,169,169);stroke-width:1" /><line x1="2790" y1="0" x2="2790" y2="4303" style="stroke:rgb(169,169,169);stroke-width:1" /><line x1="2835" y1="0" x2="2835" y2="4303" style="stroke:rgb(169,169,169);stroke-width:1" /><line x1="2880" y1="0" x2="2880" y2="4303" style="stroke:rgb(169,169,169);stroke-width:1" /><line x1="2925" y1="0" x2="2925" y2="4303" style="stroke:rgb(169,169,169);stroke-width:1" /><line x1="2970" y1="0" x2="2970" y2="4303" style="stroke:rgb(169,169,169);stroke-width:1" /><line x1="3015" y1="0" x2="3015" y2="4303" style="stroke:rgb(169,169,169);stroke-width:1" /><line x1="3060" y1="0" x2="3060" y2="4303" style="stroke:rgb(169,169,169);stroke-width:1" /><line x1="3105" y1="0" x2="3105" y2="4303" style="stroke:rgb(169,169,169);stroke-width:1" /><line x1="3150" y1="0" x2="3150" y2="4303" style="stroke:rgb(169,169,169);stroke-width:1" /><line x1="3195" y1="0" x2="3195" y2="4303" style="stroke:rgb(169,169,169);stroke-width:1" /><line x1="3240" y1="0" x2="3240" y2="4303" style="stroke:rgb(169,169,169);stroke-width:1" /><line x1="3285" y1="0" x2="3285" y2="4303" style="stroke:rgb(169,169,169);stroke-width:1" /><line x1="3330" y1="0" x2="3330" y2="4303" style="stroke:rgb(169,169,169);stroke-width:1" /><line x1="3375" y1="0" x2="3375" y2="4303" style="stroke:rgb(169,169,169);stroke-width:1" /><line x1="3420" y1="0" x2="3420" y2="4303" style="stroke:rgb(169,169,169);stroke-width:1" /><line x1="3465" y1="0" x2="3465" y2="4303" style="stroke:rgb(169,169,169);stroke-width:1" /><line x1="3510" y1="0" x2="3510" y2="4303" style="stroke:rgb(169,169,169);stroke-width:1" /><line x1="3555" y1="0" x2="3555" y2="4303" style="stroke:rgb(169,169,169);stroke-width:1" /><line x1="3600" y1="0" x2="3600" y2="4303" style="stroke:rgb(169,169,169);stroke-width:1" /><line x1="3645" y1="0" x2="3645" y2="4303" style="stroke:rgb(169,169,169);stroke-width:1" /><line x1="3690" y1="0" x2="3690" y2="4303" style="stroke:rgb(169,169,169);stroke-width:1" /><line x1="3735" y1="0" x2="3735" y2="4303" style="stroke:rgb(169,169,169);stroke-width:1" /><line x1="3780" y1="0" x2="3780" y2="4303" style="stroke:rgb(169,169,169);stroke-width:1" /><line x1="3825" y1="0" x2="3825" y2="4303" style="stroke:rgb(169,169,169);stroke-width:1" /><line x1="3870" y1="0" x2="3870" y2="4303" style="stroke:rgb(169,169,169);stroke-width:1" /><line x1="3915" y1="0" x2="3915" y2="4303" style="stroke:rgb(169,169,169);stroke-width:1" /><line x1="3960" y1="0" x2="3960" y2="4303" style="stroke:rgb(169,169,169);stroke-width:1" /><line x1="4005" y1="0" x2="4005" y2="4303" style="stroke:rgb(169,169,169);stroke-width:1" /><line x1="4050" y1="0" x2="4050" y2="4303" style="stroke:rgb(169,169,169);stroke-width:1" /><line x1="4095" y1="0" x2="4095" y2="4303" style="stroke:rgb(169,169,169);stroke-width:1" /><line x1="4140" y1="0" x2="4140" y2="4303" style="stroke:rgb(169,169,169);stroke-width:1" /><line x1="4185" y1="0" x2="4185" y2="4303" style="stroke:rgb(169,169,169);stroke-width:1" /><line x1="4230" y1="0" x2="4230" y2="4303" style="stroke:rgb(169,169,169);stroke-width:1" /><line x1="4275" y1="0" x2="4275" y2="4303" style="stroke:rgb(169,169,169);stroke-width:1" /><line x1="4320" y1="0" x2="4320" y2="4303" style="stroke:rgb(169,169,169);stroke-width:1" /><line x1="4365" y1="0" x2="4365" y2="4303" style="stroke:rgb(169,169,169);stroke-width:1" /><line x1="4410" y1="0" x2="4410" y2="4303" style="stroke:rgb(169,169,169);stroke-width:1" /><line x1="4455" y1="0" x2="4455" y2="4303" style="stroke:rgb(169,169,169);stroke-width:1" /><line x1="4500" y1="0" x2="4500" y2="4303" style="stroke:rgb(169,169,169);stroke-width:1" /><line x1="4545" y1="0" x2="4545" y2="4303" style="stroke:rgb(169,169,169);stroke-width:1" /><line x1="4590" y1="0" x2="4590" y2="4303" style="stroke:rgb(169,169,169);stroke-width:1" />

 <circle cx="3641" cy="3741" r="10" stroke="black" stroke-width="3" fill="rgb(255,128,128)" point_id="26"/>
 <!--<circle cx="3601" cy="3560" r="10" stroke="black" stroke-width="3" fill="blue" />
 <circle cx="3564" cy="3560" r="10" stroke="black" stroke-width="3" fill="blue" />
 <circle cx="3579" cy="3560" r="10" stroke="black" stroke-width="3" fill="blue" />
 <circle cx="3743" cy="3560" r="10" stroke="black" stroke-width="3" fill="blue" />
 <circle cx="3579" cy="3560" r="10" stroke="black" stroke-width="3" fill="blue" />
 <circle cx="3664" cy="3560" r="10" stroke="black" stroke-width="3" fill="blue" />
 <circle cx="3592" cy="3741" r="10" stroke="black" stroke-width="3" fill="blue" />
 <circle cx="3883" cy="3741" r="10" stroke="black" stroke-width="3" fill="blue" />   -->
 <circle cx="3652" cy="3560" r="10" stroke="black" stroke-width="3" fill="rgb(91,165,198)" point_id="71"/>
 <!--<circle cx="3643" cy="3560" r="10" stroke="black" stroke-width="3" fill="blue" />
 <circle cx="3525" cy="3741" r="10" stroke="black" stroke-width="3" fill="blue" />
 <circle cx="3731" cy="3741" r="10" stroke="black" stroke-width="3" fill="blue" />
 <circle cx="3487" cy="3560" r="10" stroke="black" stroke-width="3" fill="blue" />
 <circle cx="3477" cy="3560" r="10" stroke="black" stroke-width="3" fill="blue" />
 <circle cx="3795" cy="3741" r="10" stroke="black" stroke-width="3" fill="blue" />
 <circle cx="3795" cy="3741" r="10" stroke="black" stroke-width="3" fill="blue" />
 <circle cx="3645" cy="3560" r="10" stroke="black" stroke-width="3" fill="blue" />
 <circle cx="3511" cy="3560" r="10" stroke="black" stroke-width="3" fill="blue" />    -->
 <circle cx="3615" cy="3560" r="10" stroke="black" stroke-width="3" fill="green" point_id="85" />
 <circle cx="3797" cy="3741" r="10" stroke="black" stroke-width="3" fill="rgb(90,70,164)" point_id="161" />
 <circle cx="3495" cy="3670" r="30" stroke="black" stroke-width="3" fill="red"  point_id="robot"/>

</svg>